<?xml version="1.0" standalone="no"?>
<!DOCTYPE svg PUBLIC "-//W3C//DTD SVG 20010904//EN"
 "http://www.w3.org/TR/2001/REC-SVG-20010904/DTD/svg10.dtd">
<svg version="1.0" xmlns="http://www.w3.org/2000/svg"
 width="1024.000000pt" height="1024.000000pt" viewBox="0 0 1024.000000 1024.000000"
 preserveAspectRatio="xMidYMid meet">
<metadata>
Created by potrace 1.11, written by Peter Selinger 2001-2013
</metadata>
<g transform="translate(0.000000,1024.000000) scale(0.100000,-0.100000)"
fill="#000000" stroke="none">
<path d="M1122 10198 c-58 -61 -77 -119 -77 -243 0 -105 2 -114 33 -177 18
-36 42 -73 55 -81 17 -11 70 -16 217 -21 107 -4 213 -8 235 -10 342 -32 535
-124 666 -316 67 -98 133 -270 153 -394 4 -21 8 -41 10 -45 3 -4 7 -34 11 -66
4 -33 8 -71 11 -85 2 -14 8 -70 12 -125 9 -130 9 -6874 0 -6985 -11 -129 -17
-183 -23 -210 -3 -14 -8 -43 -11 -65 -11 -73 -52 -219 -83 -293 -66 -160 -182
-290 -316 -356 -67 -33 -185 -78 -185 -71 0 2 -15 -1 -32 -6 -18 -5 -53 -12
-78 -15 -25 -3 -52 -7 -60 -9 -28 -7 -214 -17 -360 -19 l-145 -2 -37 -37
c-102 -100 -102 -358 0 -463 l33 -34 3903 0 3902 0 22 117 c28 144 26 133 62
328 16 88 45 257 65 375 20 118 38 226 41 240 2 14 9 54 14 90 6 36 13 76 15
90 10 59 22 140 30 200 3 19 10 67 16 105 22 141 26 168 34 230 3 28 8 61 10
75 2 14 9 61 15 105 6 44 13 91 15 105 2 14 7 50 10 80 3 30 8 62 10 70 3 8 7
41 10 73 3 32 7 72 10 90 7 45 13 92 20 168 l7 67 -58 17 c-33 9 -68 19 -79
21 -11 2 -31 6 -45 9 -14 2 -47 7 -75 11 -27 3 -59 8 -70 10 -11 3 -93 7 -182
9 l-162 4 -26 -87 c-31 -104 -102 -319 -115 -347 -5 -11 -30 -72 -56 -135
-263 -635 -667 -1050 -1229 -1263 -105 -39 -270 -90 -338 -102 -12 -3 -33 -7
-47 -10 -32 -7 -54 -11 -110 -20 -25 -4 -54 -9 -65 -11 -34 -7 -142 -18 -272
-30 -113 -10 -1238 -11 -1303 -1 -140 21 -247 111 -325 271 -43 87 -97 272
-109 366 -7 54 -15 123 -21 166 -16 115 -19 665 -19 3599 0 2889 3 3448 19
3580 54 446 171 682 400 810 113 64 208 90 435 120 48 6 243 14 373 15 76 0
80 1 112 34 67 70 97 216 68 341 -16 67 -53 137 -85 160 -20 13 -274 15 -2423
15 l-2401 0 -32 -32z"/>
</g>
</svg>
